<svg width="132" height="53" viewBox="0 0 132 53" fill="none" xmlns="http://www.w3.org/2000/svg">
<circle cx="105.354" cy="26.5" r="26.5" fill="white"/>
<path d="M9.77268 36.8646C8.11805 36.8646 6.62888 36.5026 5.30517 35.7787C3.98146 35.0341 2.93698 33.9897 2.17171 32.6453C1.42712 31.3009 1.05483 29.7497 1.05483 27.9916C1.05483 26.2336 1.43746 24.6823 2.20273 23.338C2.98868 21.9936 4.05385 20.9594 5.39824 20.2355C6.74263 19.4909 8.24215 19.1186 9.89678 19.1186C11.5514 19.1186 13.0509 19.4909 14.3953 20.2355C15.7397 20.9594 16.7945 21.9936 17.5598 23.338C18.3458 24.6823 18.7387 26.2336 18.7387 27.9916C18.7387 29.7497 18.3354 31.3009 17.5288 32.6453C16.7428 33.9897 15.6673 35.0341 14.3022 35.7787C12.9579 36.5026 11.448 36.8646 9.77268 36.8646ZM9.77268 33.0796C10.5586 33.0796 11.2929 32.8935 11.9754 32.5212C12.6786 32.1282 13.2371 31.5491 13.6507 30.7838C14.0644 30.0185 14.2712 29.0878 14.2712 27.9916C14.2712 26.3577 13.8369 25.1063 12.9682 24.2377C12.1202 23.3483 11.0757 22.9036 9.83473 22.9036C8.59376 22.9036 7.54927 23.3483 6.70127 24.2377C5.87395 25.1063 5.46029 26.3577 5.46029 27.9916C5.46029 29.6256 5.86361 30.8872 6.67024 31.7766C7.49756 32.6453 8.53171 33.0796 9.77268 33.0796ZM31.4493 19.1497C33.4969 19.1497 35.1515 19.8012 36.4132 21.1042C37.6748 22.3865 38.3057 24.186 38.3057 26.5024V36.5854H33.9623V27.0919C33.9623 25.7268 33.621 24.6823 32.9384 23.9584C32.2559 23.2139 31.3252 22.8416 30.1463 22.8416C28.9466 22.8416 27.9952 23.2139 27.292 23.9584C26.6095 24.6823 26.2682 25.7268 26.2682 27.0919V36.5854H21.9248V19.3979H26.2682V21.5385C26.8473 20.794 27.5816 20.2148 28.4709 19.8012C29.381 19.3668 30.3738 19.1497 31.4493 19.1497ZM58.4136 27.6193C58.4136 28.2398 58.3722 28.7982 58.2895 29.2946H45.7246C45.828 30.5356 46.2624 31.5077 47.0276 32.2109C47.7929 32.9141 48.734 33.2658 49.8509 33.2658C51.4641 33.2658 52.612 32.5729 53.2946 31.1871H57.9793C57.4829 32.8418 56.5314 34.2068 55.125 35.2823C53.7186 36.3372 51.9915 36.8646 49.9439 36.8646C48.2893 36.8646 46.8001 36.5026 45.4764 35.7787C44.1734 35.0341 43.1496 33.9897 42.405 32.6453C41.6811 31.3009 41.3192 29.7497 41.3192 27.9916C41.3192 26.2129 41.6811 24.6513 42.405 23.3069C43.1289 21.9625 44.1424 20.9284 45.4454 20.2045C46.7484 19.4806 48.2479 19.1186 49.9439 19.1186C51.5779 19.1186 53.036 19.4702 54.3184 20.1735C55.6214 20.8767 56.6245 21.8798 57.3277 23.1828C58.0516 24.4652 58.4136 25.944 58.4136 27.6193ZM53.9151 26.3783C53.8944 25.2615 53.4911 24.3721 52.7051 23.7102C51.9192 23.0277 50.9574 22.6864 49.8198 22.6864C48.7443 22.6864 47.8343 23.0174 47.0897 23.6792C46.3658 24.3204 45.9211 25.2201 45.7556 26.3783H53.9151ZM71.1084 19.1497C73.156 19.1497 74.8106 19.8012 76.0723 21.1042C77.3339 22.3865 77.9648 24.186 77.9648 26.5024V36.5854H73.6214V27.0919C73.6214 25.7268 73.2801 24.6823 72.5976 23.9584C71.915 23.2139 70.9843 22.8416 69.8054 22.8416C68.6058 22.8416 67.6543 23.2139 66.9511 23.9584C66.2686 24.6823 65.9273 25.7268 65.9273 27.0919V36.5854H61.5839V19.3979H65.9273V21.5385C66.5064 20.794 67.2407 20.2148 68.13 19.8012C69.0401 19.3668 70.0329 19.1497 71.1084 19.1497Z" fill="white"/>
<path d="M89.7271 36.8646C88.0725 36.8646 86.5833 36.5026 85.2596 35.7787C83.9359 35.0341 82.8914 33.9897 82.1262 32.6453C81.3816 31.3009 81.0093 29.7497 81.0093 27.9916C81.0093 26.2336 81.3919 24.6823 82.1572 23.338C82.9431 21.9936 84.0083 20.9594 85.3527 20.2355C86.6971 19.4909 88.1966 19.1186 89.8512 19.1186C91.5059 19.1186 93.0054 19.4909 94.3498 20.2355C95.6942 20.9594 96.749 21.9936 97.5143 23.338C98.3002 24.6823 98.6932 26.2336 98.6932 27.9916C98.6932 29.7497 98.2899 31.3009 97.4832 32.6453C96.6973 33.9897 95.6218 35.0341 94.2567 35.7787C92.9123 36.5026 91.4025 36.8646 89.7271 36.8646ZM89.7271 33.0796C90.5131 33.0796 91.2473 32.8935 91.9299 32.5212C92.6331 32.1282 93.1915 31.5491 93.6052 30.7838C94.0188 30.0185 94.2257 29.0878 94.2257 27.9916C94.2257 26.3577 93.7913 25.1063 92.9226 24.2377C92.0746 23.3483 91.0302 22.9036 89.7892 22.9036C88.5482 22.9036 87.5037 23.3483 86.6557 24.2377C85.8284 25.1063 85.4147 26.3577 85.4147 27.9916C85.4147 29.6256 85.8181 30.8872 86.6247 31.7766C87.452 32.6453 88.4862 33.0796 89.7271 33.0796ZM106.936 22.9657V31.2802C106.936 31.8593 107.071 32.2833 107.34 32.5522C107.629 32.8004 108.105 32.9245 108.767 32.9245H110.783V36.5854H108.053C104.392 36.5854 102.562 34.8066 102.562 31.2492V22.9657H100.514V19.3979H102.562V15.1475H106.936V19.3979H110.783V22.9657H106.936ZM129.885 27.6193C129.885 28.2398 129.843 28.7982 129.761 29.2946H117.196C117.299 30.5356 117.734 31.5077 118.499 32.2109C119.264 32.9141 120.205 33.2658 121.322 33.2658C122.935 33.2658 124.083 32.5729 124.766 31.1871H129.45C128.954 32.8418 128.003 34.2068 126.596 35.2823C125.19 36.3372 123.463 36.8646 121.415 36.8646C119.761 36.8646 118.271 36.5026 116.948 35.7787C115.645 35.0341 114.621 33.9897 113.876 32.6453C113.152 31.3009 112.79 29.7497 112.79 27.9916C112.79 26.2129 113.152 24.6513 113.876 23.3069C114.6 21.9625 115.614 20.9284 116.917 20.2045C118.22 19.4806 119.719 19.1186 121.415 19.1186C123.049 19.1186 124.507 19.4702 125.79 20.1735C127.093 20.8767 128.096 21.8798 128.799 23.1828C129.523 24.4652 129.885 25.944 129.885 27.6193ZM125.386 26.3783C125.366 25.2615 124.962 24.3721 124.176 23.7102C123.39 23.0277 122.429 22.6864 121.291 22.6864C120.216 22.6864 119.305 23.0174 118.561 23.6792C117.837 24.3204 117.392 25.2201 117.227 26.3783H125.386Z" fill="#4A4AFA"/>
</svg>
