<svg width="102" height="41" viewBox="0 0 102 41" fill="none" xmlns="http://www.w3.org/2000/svg">
<circle cx="81.5" cy="20.5" r="20.5" fill="#4A4AFA"/>
<path d="M7.56 28.216C6.28 28.216 5.128 27.936 4.104 27.376C3.08 26.8 2.272 25.992 1.68 24.952C1.104 23.912 0.816 22.712 0.816 21.352C0.816 19.992 1.112 18.792 1.704 17.752C2.312 16.712 3.136 15.912 4.176 15.352C5.216 14.776 6.376 14.488 7.656 14.488C8.936 14.488 10.096 14.776 11.136 15.352C12.176 15.912 12.992 16.712 13.584 17.752C14.192 18.792 14.496 19.992 14.496 21.352C14.496 22.712 14.184 23.912 13.56 24.952C12.952 25.992 12.12 26.8 11.064 27.376C10.024 27.936 8.856 28.216 7.56 28.216ZM7.56 25.288C8.168 25.288 8.736 25.144 9.264 24.856C9.808 24.552 10.24 24.104 10.56 23.512C10.88 22.92 11.04 22.2 11.04 21.352C11.04 20.088 10.704 19.12 10.032 18.448C9.376 17.76 8.568 17.416 7.608 17.416C6.648 17.416 5.84 17.76 5.184 18.448C4.544 19.12 4.224 20.088 4.224 21.352C4.224 22.616 4.536 23.592 5.16 24.28C5.8 24.952 6.6 25.288 7.56 25.288ZM24.3287 14.512C25.9127 14.512 27.1927 15.016 28.1687 16.024C29.1447 17.016 29.6327 18.408 29.6327 20.2V28H26.2727V20.656C26.2727 19.6 26.0087 18.792 25.4807 18.232C24.9527 17.656 24.2327 17.368 23.3207 17.368C22.3927 17.368 21.6567 17.656 21.1127 18.232C20.5847 18.792 20.3207 19.6 20.3207 20.656V28H16.9607V14.704H20.3207V16.36C20.7687 15.784 21.3367 15.336 22.0247 15.016C22.7287 14.68 23.4967 14.512 24.3287 14.512ZM45.1879 21.064C45.1879 21.544 45.1559 21.976 45.0919 22.36H35.3719C35.4519 23.32 35.7879 24.072 36.3799 24.616C36.9719 25.16 37.6999 25.432 38.5639 25.432C39.8119 25.432 40.6999 24.896 41.2279 23.824H44.8519C44.4679 25.104 43.7319 26.16 42.6439 26.992C41.5559 27.808 40.2199 28.216 38.6359 28.216C37.3559 28.216 36.2039 27.936 35.1799 27.376C34.1719 26.8 33.3799 25.992 32.8039 24.952C32.2439 23.912 31.9639 22.712 31.9639 21.352C31.9639 19.976 32.2439 18.768 32.8039 17.728C33.3639 16.688 34.1479 15.888 35.1559 15.328C36.1639 14.768 37.3239 14.488 38.6359 14.488C39.8999 14.488 41.0279 14.76 42.0199 15.304C43.0279 15.848 43.8039 16.624 44.3479 17.632C44.9079 18.624 45.1879 19.768 45.1879 21.064ZM41.7079 20.104C41.6919 19.24 41.3799 18.552 40.7719 18.04C40.1639 17.512 39.4199 17.248 38.5399 17.248C37.7079 17.248 37.0039 17.504 36.4279 18.016C35.8679 18.512 35.5239 19.208 35.3959 20.104H41.7079ZM55.0084 14.512C56.5924 14.512 57.8724 15.016 58.8484 16.024C59.8244 17.016 60.3124 18.408 60.3124 20.2V28H56.9524V20.656C56.9524 19.6 56.6884 18.792 56.1604 18.232C55.6324 17.656 54.9124 17.368 54.0004 17.368C53.0724 17.368 52.3364 17.656 51.7924 18.232C51.2644 18.792 51.0004 19.6 51.0004 20.656V28H47.6404V14.704H51.0004V16.36C51.4484 15.784 52.0164 15.336 52.7044 15.016C53.4084 14.68 54.1764 14.512 55.0084 14.512Z" fill="black"/>
<path d="M69.4116 28.216C68.1316 28.216 66.9796 27.936 65.9556 27.376C64.9316 26.8 64.1236 25.992 63.5316 24.952C62.9556 23.912 62.6676 22.712 62.6676 21.352C62.6676 19.992 62.9636 18.792 63.5556 17.752C64.1636 16.712 64.9876 15.912 66.0276 15.352C67.0676 14.776 68.2276 14.488 69.5076 14.488C70.7876 14.488 71.9476 14.776 72.9876 15.352C74.0276 15.912 74.8436 16.712 75.4356 17.752C76.0436 18.792 76.3476 19.992 76.3476 21.352C76.3476 22.712 76.0356 23.912 75.4116 24.952C74.8036 25.992 73.9716 26.8 72.9156 27.376C71.8756 27.936 70.7076 28.216 69.4116 28.216ZM69.4116 25.288C70.0196 25.288 70.5876 25.144 71.1156 24.856C71.6596 24.552 72.0916 24.104 72.4116 23.512C72.7316 22.92 72.8916 22.2 72.8916 21.352C72.8916 20.088 72.5556 19.12 71.8836 18.448C71.2276 17.76 70.4196 17.416 69.4596 17.416C68.4996 17.416 67.6916 17.76 67.0356 18.448C66.3956 19.12 66.0756 20.088 66.0756 21.352C66.0756 22.616 66.3876 23.592 67.0116 24.28C67.6516 24.952 68.4516 25.288 69.4116 25.288ZM82.7243 17.464V23.896C82.7243 24.344 82.8283 24.672 83.0363 24.88C83.2603 25.072 83.6283 25.168 84.1403 25.168H85.7003V28H83.5883C80.7563 28 79.3403 26.624 79.3403 23.872V17.464H77.7563V14.704H79.3403V11.416H82.7243V14.704H85.7003V17.464H82.7243ZM100.477 21.064C100.477 21.544 100.445 21.976 100.381 22.36H90.6609C90.7409 23.32 91.0769 24.072 91.6689 24.616C92.2609 25.16 92.9889 25.432 93.8529 25.432C95.1009 25.432 95.9889 24.896 96.5169 23.824H100.141C99.7569 25.104 99.0209 26.16 97.9329 26.992C96.8449 27.808 95.5089 28.216 93.9249 28.216C92.6449 28.216 91.4929 27.936 90.4689 27.376C89.4609 26.8 88.6689 25.992 88.0929 24.952C87.5329 23.912 87.2529 22.712 87.2529 21.352C87.2529 19.976 87.5329 18.768 88.0929 17.728C88.6529 16.688 89.4369 15.888 90.4449 15.328C91.4529 14.768 92.6129 14.488 93.9249 14.488C95.1889 14.488 96.3169 14.76 97.3089 15.304C98.3169 15.848 99.0929 16.624 99.6369 17.632C100.197 18.624 100.477 19.768 100.477 21.064ZM96.9969 20.104C96.9809 19.24 96.6689 18.552 96.0609 18.04C95.4529 17.512 94.7089 17.248 93.8289 17.248C92.9969 17.248 92.2929 17.504 91.7169 18.016C91.1569 18.512 90.8129 19.208 90.6849 20.104H96.9969Z" fill="white"/>
</svg>
